<svg xmlns="http://www.w3.org/2000/svg" fill="none" viewBox="0 0 241 64" height="64" width="241">
<g clip-path="url(#clip0_903_7527)">
<mask height="64" width="241" y="0" x="0" maskUnits="userSpaceOnUse" style="mask-type:luminance" id="mask0_903_7527">
<path fill="white" d="M240.41 0H0V64H240.41V0Z"></path>
</mask>
<g mask="url(#mask0_903_7527)">
<path fill="#E7E7E7" d="M186.505 45.117C185.008 45.117 184.009 46.2871 183.843 47.9578H189.334C189.001 46.454 188.169 45.117 186.505 45.117ZM173.529 45.2839C173.109 45.2931 172.696 45.3884 172.315 45.564C171.934 45.7396 171.592 45.9917 171.312 46.3048C171.031 46.618 170.818 46.9855 170.684 47.3847C170.55 47.784 170.499 48.2065 170.534 48.6262C170.485 49.0488 170.526 49.4771 170.654 49.8825C170.783 50.288 170.995 50.6613 171.279 50.9775C171.562 51.2938 171.909 51.5458 172.297 51.7167C172.685 51.8876 173.105 51.9734 173.529 51.9686C173.948 51.9594 174.361 51.8641 174.742 51.6885C175.123 51.5129 175.465 51.2608 175.745 50.9476C176.026 50.6345 176.24 50.267 176.373 49.8678C176.507 49.4685 176.558 49.046 176.523 48.6262C176.572 48.2037 176.531 47.7754 176.403 47.37C176.275 46.9645 176.062 46.5912 175.778 46.275C175.495 45.9587 175.148 45.7067 174.76 45.5358C174.372 45.3649 173.952 45.279 173.529 45.2839ZM113.468 50.7985C113.468 51.8007 114.299 52.4692 115.465 52.4692C117.129 52.4692 118.294 51.6338 118.294 50.2969V49.6284C117.488 49.3486 116.648 49.1799 115.798 49.1268C114.466 49.1268 113.469 49.7953 113.469 50.7975M142.252 45.2828C141.82 45.2733 141.39 45.3545 140.991 45.5214C140.592 45.6882 140.233 45.937 139.935 46.2517C139.637 46.5664 139.409 46.9401 139.263 47.3488C139.118 47.7576 139.059 48.1923 139.091 48.6252C139.051 49.5105 139.36 50.3758 139.952 51.033C140.544 51.6902 141.371 52.086 142.252 52.1344C142.684 52.144 143.113 52.0627 143.512 51.8959C143.911 51.729 144.271 51.4803 144.568 51.1656C144.866 50.8508 145.095 50.4771 145.24 50.0684C145.385 49.6596 145.444 49.2249 145.412 48.792C145.475 48.345 145.44 47.8895 145.308 47.4578C145.176 47.0261 144.952 46.6287 144.65 46.2939C144.349 45.959 143.978 45.6949 143.563 45.5202C143.148 45.3454 142.701 45.2644 142.252 45.2828ZM24.4595 45.2828C24.0275 45.2733 23.5982 45.3545 23.1993 45.5214C22.8003 45.6882 22.4405 45.937 22.1429 46.2517C21.8453 46.5664 21.6165 46.9401 21.4712 47.3488C21.3258 47.7576 21.2671 48.1923 21.2989 48.6252C21.2576 49.5108 21.5664 50.377 22.158 51.035C22.7495 51.6931 23.576 52.0897 24.4574 52.1386C24.8894 52.1482 25.3187 52.0669 25.7176 51.9001C26.1166 51.7332 26.4764 51.4845 26.774 51.1698C27.0716 50.8551 27.3004 50.4814 27.4457 50.0726C27.5911 49.6639 27.6498 49.2291 27.618 48.7963C27.6517 48.3548 27.5955 47.9111 27.4529 47.4922C27.3103 47.0732 27.0842 46.6879 26.7885 46.3595C26.4928 46.0312 26.1336 45.7668 25.7328 45.5824C25.332 45.398 24.8981 45.2975 24.4574 45.2871M232.262 53.974H229.766V47.9546C229.766 46.284 228.934 45.2807 227.437 45.2807C227.103 45.2845 226.774 45.3589 226.47 45.4992C226.167 45.6394 225.897 45.8424 225.677 46.0947C225.457 46.3471 225.293 46.6432 225.195 46.9637C225.097 47.2841 225.067 47.6218 225.108 47.9546V53.974H222.612V43.4464H225.108V45.117C225.452 44.5433 225.941 44.0711 226.525 43.7482C227.11 43.4253 227.769 43.2633 228.435 43.2785C228.957 43.2611 229.477 43.3543 229.96 43.5521C230.444 43.75 230.88 44.0479 231.241 44.4266C231.602 44.8052 231.88 45.2561 232.055 45.7497C232.231 46.2433 232.302 46.7687 232.262 47.2914V53.974ZM219.95 51.8017C219.95 55.4778 217.953 57.1495 214.294 57.1495C212.648 57.1429 211.036 56.6802 209.635 55.8126L210.466 53.974C211.611 54.7092 212.935 55.114 214.293 55.1441C216.455 55.1441 217.62 53.974 217.62 51.9697V51.1343C217.227 51.7504 216.686 52.2571 216.046 52.6078C215.406 52.9584 214.689 53.1417 213.96 53.1408C213.309 53.1506 212.663 53.0264 212.062 52.7757C211.461 52.525 210.917 52.1532 210.465 51.6833C210.012 51.2133 209.66 50.6552 209.43 50.0433C209.201 49.4314 209.099 48.7788 209.13 48.1257C209.099 47.4732 209.201 46.8212 209.431 46.21C209.66 45.5987 210.011 45.0411 210.464 44.5714C210.916 44.1018 211.459 43.73 212.059 43.4792C212.66 43.2283 213.305 43.1036 213.955 43.1127C214.668 43.098 215.374 43.2577 216.011 43.578C216.649 43.8983 217.199 44.3696 217.615 44.9512V43.2795H220.111V51.8017H219.95ZM206.64 41.7757H203.978V39.4356H206.64V41.7757ZM206.474 53.974H203.978V43.4464H206.474V53.974ZM201.649 50.9664C201.649 53.1387 199.986 54.3088 197.654 54.3088C196.036 54.2965 194.464 53.7701 193.162 52.805L194.16 51.1343C195.157 51.9352 196.379 52.4026 197.654 52.4713C198.652 52.4713 199.317 51.9696 199.317 51.3012C199.317 50.4659 198.152 50.1311 196.988 49.7974C195.491 49.2958 193.66 48.6273 193.66 46.6229C193.66 44.6165 195.324 43.4485 197.487 43.4485C198.845 43.4786 200.168 43.8834 201.313 44.6186L200.315 46.2892C199.428 45.6838 198.392 45.337 197.32 45.2871C196.323 45.2871 195.823 45.7887 195.823 46.2892C195.823 47.1246 196.988 47.2914 198.152 47.793C199.815 48.2946 201.646 48.9631 201.646 50.9675L201.649 50.9664ZM191.501 49.6295H183.681C183.77 50.3651 184.124 51.0429 184.675 51.5352C185.226 52.0276 185.938 52.3008 186.676 52.3034C187.214 52.2941 187.745 52.1702 188.233 51.9397C188.72 51.7092 189.154 51.3775 189.504 50.9664L191.001 52.3034C190.274 53.1797 189.297 53.811 188.201 54.1121C187.106 54.4132 185.945 54.3695 184.875 53.9869C183.805 53.6044 182.877 52.9014 182.217 51.9729C181.558 51.0443 181.197 49.9349 181.185 48.7942C181.154 48.0896 181.263 47.386 181.507 46.7247C181.751 46.0634 182.124 45.4579 182.605 44.9438C183.086 44.4298 183.664 44.0177 184.306 43.7319C184.948 43.446 185.64 43.2922 186.342 43.2795C189.67 43.2795 191.334 45.9534 191.334 48.961C191.666 49.1279 191.501 49.2947 191.501 49.6295ZM179.021 53.974H176.525V52.1386C176.147 52.769 175.609 53.287 174.966 53.6395C174.322 53.9921 173.598 54.1666 172.865 54.1451C170.369 54.1451 168.04 52.1386 168.04 48.6305C168.04 45.1223 170.369 43.1158 172.865 43.1158C173.575 43.1208 174.273 43.2891 174.908 43.6079C175.542 43.9266 176.096 44.3873 176.525 44.9544V39.2729H179.021V53.974ZM159.722 53.974H157.226V47.9546C157.226 46.284 156.394 45.2807 154.897 45.2807C154.563 45.2845 154.234 45.3589 153.931 45.4992C153.628 45.6394 153.357 45.8424 153.138 46.0947C152.918 46.3471 152.753 46.6432 152.655 46.9637C152.557 47.2841 152.528 47.6218 152.568 47.9546V53.974H150.072V43.4464H152.563V45.117C152.907 44.5433 153.396 44.0711 153.981 43.7482C154.565 43.4253 155.224 43.2633 155.891 43.2785C156.412 43.2611 156.932 43.3543 157.415 43.5521C157.899 43.75 158.335 44.0479 158.696 44.4266C159.057 44.8052 159.335 45.2561 159.511 45.7497C159.687 46.2433 159.757 46.7687 159.717 47.2914L159.722 53.974ZM142.253 54.3077C141.521 54.3189 140.794 54.1851 140.113 53.914C139.433 53.6428 138.812 53.2397 138.287 52.7276C137.761 52.2155 137.342 51.6044 137.052 50.9293C136.761 50.2542 136.607 49.5283 136.596 48.7931C136.562 47.6623 136.866 46.5472 137.467 45.5905C138.068 44.6339 138.94 43.8792 139.971 43.423C141.001 42.9669 142.144 42.8301 143.253 43.0301C144.361 43.2301 145.385 43.7579 146.194 44.5458C147.002 45.3337 147.558 46.346 147.79 47.453C148.022 48.56 147.92 49.7114 147.496 50.7598C147.073 51.8082 146.348 52.7058 145.414 53.3379C144.48 53.97 143.379 54.3076 142.253 54.3077ZM134.433 41.7747H131.771V39.4356H134.433V41.7747ZM134.268 53.974H131.772V43.4464H134.268V53.974ZM129.277 45.4518H126.449V50.6317C126.449 51.6338 126.948 51.9686 127.78 51.9686C128.293 51.9377 128.799 51.8251 129.277 51.6349V53.6414C128.607 53.9832 127.865 54.1554 127.114 54.143C125.284 54.143 124.12 53.3076 124.12 50.9685V45.4518H122.788V43.4453H124.12V40.6046H126.449V43.4453H129.277V45.4518ZM120.792 53.974H118.463V52.6371C118.033 53.1398 117.494 53.5371 116.887 53.7985C116.281 54.0599 115.623 54.1784 114.964 54.1451C112.966 54.1451 111.138 52.975 111.138 50.8027C111.138 48.4636 112.968 47.4604 115.463 47.4604C116.485 47.4202 117.504 47.591 118.458 47.962V47.6283C118.458 46.1245 117.46 45.2892 115.795 45.2892C114.766 45.3333 113.752 45.5596 112.801 45.9576L112.135 43.9512C113.391 43.384 114.754 43.0989 116.131 43.1158C119.291 43.1158 120.79 44.7865 120.79 47.6272L120.792 53.974ZM105.143 54.3077C104.422 54.3077 103.708 54.1651 103.042 53.8879C102.376 53.6108 101.771 53.2046 101.261 52.6925C100.751 52.1804 100.347 51.5725 100.071 50.9034C99.7948 50.2344 99.6528 49.5173 99.6528 48.7931C99.6528 48.0689 99.7948 47.3518 100.071 46.6827C100.347 46.0137 100.751 45.4057 101.261 44.8937C101.771 44.3816 102.376 43.9754 103.042 43.6982C103.708 43.4211 104.422 43.2785 105.143 43.2785C105.933 43.2283 106.722 43.3691 107.446 43.689C108.17 44.009 108.807 44.4987 109.303 45.117L107.806 46.7877C107.501 46.3671 107.1 46.0263 106.637 45.7938C106.173 45.5613 105.661 45.444 105.143 45.4518C104.724 45.4604 104.311 45.5553 103.929 45.7307C103.548 45.9061 103.206 46.1582 102.925 46.4714C102.645 46.7847 102.431 47.1525 102.297 47.552C102.164 47.9515 102.113 48.3743 102.149 48.7942C102.109 49.6794 102.418 50.5448 103.01 51.202C103.602 51.8592 104.428 52.255 105.309 52.3034C105.827 52.311 106.34 52.1935 106.803 51.9609C107.266 51.7282 107.667 51.3872 107.972 50.9664L109.469 52.4702C108.925 53.0752 108.256 53.5533 107.509 53.8707C106.762 54.1882 105.954 54.3373 105.143 54.3077ZM97.3291 41.7747H94.833V39.4356H97.4952V41.7747H97.3291ZM97.3291 53.973H94.833V43.4464H97.3291V53.973ZM92.1718 53.973H89.6757V47.9535C89.6757 46.2829 88.844 45.2797 87.3468 45.2797C87.013 45.2834 86.6837 45.3578 86.3805 45.4981C86.0773 45.6384 85.8069 45.8413 85.5871 46.0937C85.3673 46.346 85.203 46.6421 85.1049 46.9626C85.0068 47.2831 84.9772 47.6208 85.0179 47.9535V53.973H82.5218V43.4464H85.0179V45.117C85.3621 44.5433 85.8512 44.0711 86.4355 43.7482C87.0199 43.4253 87.6789 43.2633 88.3456 43.2785C88.8674 43.2611 89.3869 43.3543 89.8703 43.5521C90.3537 43.75 90.7901 44.0479 91.1512 44.4266C91.5122 44.8052 91.7897 45.2561 91.9656 45.7497C92.1414 46.2433 92.2117 46.7687 92.1718 47.2914V53.973ZM79.5273 53.973H77.0312V52.3023C76.6876 52.8765 76.1991 53.3494 75.6151 53.673C75.0311 53.9966 74.3723 54.1595 73.7055 54.1451C73.1836 54.1628 72.6639 54.0698 72.1802 53.8721C71.6965 53.6744 71.2598 53.3765 70.8986 52.9978C70.5373 52.6191 70.2596 52.1682 70.0836 51.6744C69.9076 51.1806 69.8373 50.6551 69.8772 50.1321V43.4464H72.3733V49.4658C72.3733 51.1364 73.205 51.9728 74.7022 51.9728C75.036 51.9691 75.3653 51.8946 75.6685 51.7544C75.9717 51.6141 76.2421 51.4112 76.4619 51.1588C76.6817 50.9065 76.846 50.6104 76.9441 50.2899C77.0422 49.9694 77.0719 49.6317 77.0312 49.2989V43.4464H79.5273V53.973ZM67.3822 53.973H64.8861V47.9535C64.8861 46.2829 64.0544 45.2797 62.7233 45.2797C62.3895 45.2834 62.0602 45.3578 61.757 45.4981C61.4538 45.6384 61.1834 45.8413 60.9636 46.0937C60.7438 46.346 60.5795 46.6421 60.4814 46.9626C60.3833 47.2831 60.3536 47.6208 60.3943 47.9535V53.973H58.2305V47.9535C58.2305 46.2829 57.3988 45.4465 56.0677 45.4465C55.7334 45.4502 55.4036 45.5247 55.1 45.6653C54.7964 45.8059 54.5258 46.0093 54.3059 46.2623C54.086 46.5152 53.9218 46.812 53.8241 47.1331C53.7263 47.4542 53.6973 47.7925 53.7388 48.1257V54.1451H51.2427V43.4464H53.7388V45.117C54.0627 44.5625 54.524 44.1018 55.0779 43.7796C55.6318 43.4574 56.2593 43.2847 56.8994 43.2785C57.5495 43.2279 58.1996 43.3766 58.7639 43.7048C59.3282 44.0331 59.7801 44.5255 60.06 45.117C60.4636 44.5236 61.0112 44.0434 61.6511 43.7219C62.291 43.4003 63.002 43.2481 63.7169 43.2795C66.0458 43.2795 67.3769 44.7833 67.3769 47.2925L67.3822 53.973ZM48.4154 53.973H45.9193V47.9535C45.9193 46.2829 45.0876 45.2797 43.7565 45.2797C43.4222 45.2832 43.0924 45.3576 42.7887 45.4981C42.485 45.6385 42.2144 45.8418 41.9944 46.0947C41.7744 46.3475 41.6101 46.6442 41.5122 46.9653C41.4143 47.2863 41.3851 47.6246 41.4265 47.9578V53.9772H38.9314V47.9578C38.9314 46.2871 38.0997 45.4507 36.7686 45.4507C36.4347 45.4545 36.1054 45.5289 35.8021 45.6692C35.4988 45.8096 35.2284 46.0126 35.0085 46.2651C34.7887 46.5176 34.6244 46.8138 34.5264 47.1344C34.4284 47.455 34.3988 47.7928 34.4397 48.1257V54.1451H31.9436V43.4464H34.4397V45.117C34.7636 44.5625 35.225 44.1018 35.7789 43.7796C36.3327 43.4574 36.9603 43.2847 37.6003 43.2785C38.247 43.2495 38.8884 43.4073 39.4485 43.7331C40.0087 44.059 40.4641 44.5392 40.7609 45.117C41.1647 44.5229 41.7128 44.0422 42.3533 43.7205C42.9938 43.3987 43.7055 43.2466 44.421 43.2785C46.7499 43.2785 48.081 44.7823 48.081 47.2914V53.9751L48.4154 53.973ZM24.4574 54.3067C23.7254 54.3178 22.9984 54.184 22.3179 53.9129C21.6374 53.6418 21.0167 53.2386 20.4914 52.7265C19.9661 52.2144 19.5464 51.6033 19.2563 50.9282C18.9662 50.2531 18.8114 49.5272 18.8007 48.792C18.7971 48.0527 18.9423 47.3202 19.2274 46.6385C19.5125 45.9569 19.9318 45.3401 20.46 44.8251C20.9883 44.3101 21.6146 43.9076 22.3015 43.6416C22.9884 43.3757 23.7217 43.2518 24.4574 43.2774C25.1894 43.2662 25.9164 43.4 26.5969 43.6712C27.2774 43.9423 27.8981 44.3454 28.4234 44.8576C28.9487 45.3697 29.3684 45.9807 29.6585 46.6558C29.9486 47.3309 30.1034 48.0568 30.1141 48.792C30.1177 49.5314 29.9725 50.2639 29.6874 50.9456C29.4022 51.6272 28.983 52.244 28.4548 52.759C27.9265 53.274 27.3002 53.6765 26.6133 53.9424C25.9264 54.2084 25.1931 54.3323 24.4574 54.3067ZM13.144 54.3067C11.6878 54.3067 10.2912 53.7257 9.26154 52.6915C8.23186 51.6573 7.65338 50.2546 7.65338 48.792C7.65338 47.3295 8.23186 45.9268 9.26154 44.8926C10.2912 43.8584 11.6878 43.2774 13.144 43.2774C13.9332 43.2273 14.7228 43.3681 15.4466 43.688C16.1704 44.0079 16.8072 44.4976 17.3034 45.116L15.8062 46.7866C15.5012 46.3661 15.1001 46.0254 14.6366 45.7931C14.1731 45.5608 13.6608 45.4437 13.1429 45.4518C12.7234 45.4604 12.3101 45.5553 11.9286 45.7307C11.5471 45.9061 11.2054 46.1582 10.9248 46.4714C10.6441 46.7847 10.4304 47.1525 10.2969 47.552C10.1634 47.9515 10.1128 48.3743 10.1484 48.7942C10.1083 49.6794 10.4179 50.5448 11.0098 51.202C11.6017 51.8592 12.428 52.255 13.309 52.3034C13.827 52.311 14.3391 52.1935 14.8024 51.9609C15.2657 51.7282 15.6666 51.3872 15.9713 50.9664L17.4685 52.4702C16.9249 53.0752 16.2559 53.5533 15.5086 53.8707C14.7613 54.1882 13.9538 54.3373 13.1429 54.3077M0 64H240.41V32.9188H0V64ZM214.456 45.2839C213.661 45.2839 212.899 45.601 212.337 46.1654C211.775 46.7298 211.459 47.4954 211.459 48.2936C211.459 49.0918 211.775 49.8573 212.337 50.4218C212.899 50.9862 213.661 51.3033 214.456 51.3033C214.859 51.3185 215.26 51.2518 215.637 51.1074C216.014 50.963 216.358 50.7437 216.648 50.4628C216.939 50.1818 217.17 49.8449 217.327 49.4722C217.485 49.0994 217.567 48.6986 217.567 48.2936C217.567 47.8886 217.485 47.4877 217.327 47.115C217.17 46.7423 216.939 46.4054 216.648 46.1244C216.358 45.8434 216.014 45.6242 215.637 45.4798C215.26 45.3353 214.859 45.2687 214.456 45.2839Z"></path>
</g>
<mask height="64" width="241" y="0" x="0" maskUnits="userSpaceOnUse" style="mask-type:luminance" id="mask1_903_7527">
<path fill="white" d="M240.41 0H0V64H240.41V0Z"></path>
</mask>
<g mask="url(#mask1_903_7527)">
<path fill="#E7E7E7" d="M33.6065 12.3651C33.1745 12.3556 32.7452 12.4368 32.3463 12.6037C31.9473 12.7705 31.5875 13.0193 31.2899 13.334C30.9923 13.6487 30.7635 14.0224 30.6182 14.4311C30.4728 14.8399 30.4141 15.2746 30.4459 15.7075C30.4058 16.5928 30.7153 17.4581 31.3072 18.1153C31.8991 18.7725 32.7255 19.1683 33.6065 19.2167C34.0385 19.2263 34.4678 19.145 34.8667 18.9782C35.2657 18.8113 35.6255 18.5626 35.9231 18.2479C36.2207 17.9331 36.4495 17.5594 36.5948 17.1507C36.7402 16.7419 36.7989 16.3072 36.7671 15.8743C36.8167 15.4297 36.7717 14.9795 36.6351 14.5537C36.4984 14.1279 36.2732 13.736 35.9743 13.4042C35.6755 13.0724 35.3098 12.8082 34.9016 12.6291C34.4934 12.4499 34.0519 12.36 33.6065 12.3651Z"></path>
</g>
<mask height="64" width="241" y="0" x="0" maskUnits="userSpaceOnUse" style="mask-type:luminance" id="mask2_903_7527">
<path fill="white" d="M240.41 0H0V64H240.41V0Z"></path>
</mask>
<g mask="url(#mask2_903_7527)">
<path fill="#E7E7E7" d="M181.846 18.0466C181.846 20.2189 180.183 21.389 177.851 21.389C176.233 21.3767 174.661 20.8503 173.359 19.8852L174.357 18.2145C175.354 19.0153 176.576 19.4828 177.851 19.5515C178.849 19.5515 179.514 19.0498 179.514 18.3814C179.514 17.546 178.349 17.2113 177.185 16.8776C175.688 16.3759 173.858 15.7075 173.858 13.7031C173.858 11.6967 175.521 10.5287 177.684 10.5287C179.042 10.5588 180.366 10.9636 181.51 11.6988L180.512 13.3694C179.625 12.764 178.589 12.4172 177.518 12.3672C176.52 12.3672 176.02 12.8689 176.02 13.3694C176.02 14.2047 177.185 14.3716 178.349 14.8732C180.18 15.3748 181.843 16.0433 181.843 18.0477L181.846 18.0466ZM169.368 21.2263H167.205L164.876 14.0453L162.552 21.2263H160.389L156.891 10.5276H159.387L161.55 17.8797L163.879 10.5276H165.876L168.205 17.8797L170.368 10.5276H172.864L169.368 21.2263ZM156.225 16.7149H148.406C148.495 17.4506 148.848 18.1283 149.399 18.6207C149.951 19.1131 150.662 19.3862 151.4 19.3888C151.939 19.3796 152.47 19.2556 152.957 19.0252C153.445 18.7947 153.878 18.463 154.228 18.0519L155.726 19.3888C154.999 20.2652 154.021 20.8965 152.926 21.1976C151.83 21.4986 150.669 21.4549 149.599 21.0724C148.529 20.6899 147.602 19.9869 146.942 19.0583C146.282 18.1298 145.922 17.0203 145.91 15.8796C145.878 15.1751 145.988 14.4714 146.232 13.8101C146.476 13.1488 146.849 12.5433 147.33 12.0293C147.81 11.5153 148.389 11.1032 149.031 10.8174C149.672 10.5315 150.365 10.3777 151.067 10.365C154.395 10.365 156.058 13.0389 156.058 16.0465C156.19 16.2426 156.25 16.4794 156.225 16.7149ZM144.08 21.2263H141.584V15.039C141.584 13.3684 140.752 12.532 139.255 12.532C138.921 12.5357 138.592 12.6102 138.289 12.7504C137.986 12.8907 137.715 13.0936 137.495 13.346C137.276 13.5983 137.111 13.8944 137.013 14.2149C136.915 14.5354 136.885 14.8731 136.926 15.2059V21.2253H134.43V6.5168H136.926V12.1983C137.27 11.6245 137.759 11.1523 138.344 10.8294C138.928 10.5066 139.587 10.3445 140.254 10.3597C140.776 10.3423 141.295 10.4355 141.779 10.6334C142.262 10.8312 142.698 11.1292 143.059 11.5078C143.42 11.8865 143.698 12.3373 143.874 12.8309C144.05 13.3246 144.12 13.8499 144.08 14.3726V21.2263ZM132.101 12.7041H129.273V17.884C129.273 18.8861 129.772 19.2209 130.604 19.2209C131.117 19.19 131.623 19.0774 132.101 18.8872V20.8937C131.432 21.2355 130.689 21.4077 129.938 21.3953C128.108 21.3953 126.944 20.56 126.944 18.2208V12.6999H125.613V10.5276H126.944V7.68689H129.44V10.5276H132.268V12.6999L132.101 12.7041ZM123.284 12.7041H120.455V17.884C120.455 18.8861 120.955 19.2209 121.786 19.2209C122.3 19.19 122.805 19.0774 123.284 18.8872V20.8937C122.614 21.2355 121.872 21.4077 121.121 21.3953C119.29 21.3953 118.126 20.56 118.126 18.2208V12.6999H116.795V10.5276H118.126V7.68689H120.623V10.5276H123.451V12.6999L123.284 12.7041ZM114.799 21.2263H112.47V19.8852C112.04 20.3864 111.502 20.7825 110.896 21.0431C110.291 21.3037 109.634 21.422 108.976 21.389C106.978 21.389 105.15 20.2189 105.15 18.0466C105.15 15.7075 106.98 14.7042 109.475 14.7042C110.497 14.6641 111.516 14.8348 112.47 15.2059V14.8722C112.47 13.3684 111.472 12.533 109.808 12.533C108.778 12.5771 107.764 12.8034 106.813 13.2015L106.147 11.195C107.403 10.6278 108.766 10.3428 110.143 10.3597C113.304 10.3597 114.802 12.0304 114.802 14.8711L114.799 21.2263ZM103.319 21.2263H100.822V15.039C100.822 13.3684 99.9903 12.532 98.6592 12.532C97.328 12.532 96.4964 13.3673 96.4964 15.2059V21.2253H93.9982V15.039C93.9982 13.3684 93.1665 12.532 91.8354 12.532C91.5016 12.536 91.1725 12.6107 90.8695 12.7511C90.5664 12.8916 90.2963 13.0947 90.0767 13.3471C89.8571 13.5996 89.693 13.8957 89.5951 14.2161C89.4972 14.5366 89.4677 14.8742 89.5085 15.2069V21.2263H87.0135V10.5276H89.5085V12.1983C89.8325 11.6438 90.2938 11.183 90.8477 10.8608C91.4016 10.5386 92.0291 10.366 92.6692 10.3597C93.3193 10.3091 93.9694 10.4578 94.5337 10.786C95.098 11.1143 95.5499 11.6067 95.8298 12.1983C96.2335 11.6042 96.7816 11.1235 97.4221 10.8017C98.0626 10.48 98.7743 10.3278 99.4898 10.3597C101.819 10.3597 103.15 11.8635 103.15 14.3726V21.2263H103.319ZM84.5184 21.2263H81.8562V18.3856H84.5184V21.2263ZM79.5273 18.0519C79.5273 20.2241 77.8639 21.3942 75.5318 21.3942C73.914 21.382 72.3417 20.8556 71.0401 19.8904L72.0379 18.2198C73.0352 19.0206 74.2568 19.4881 75.5318 19.5567C76.5296 19.5567 77.1952 19.0551 77.1952 18.3866C77.1952 17.5513 76.0302 17.2166 74.8663 16.8828C73.369 16.3812 71.5385 15.7128 71.5385 13.7084C71.5385 11.7019 73.2019 10.534 75.3647 10.534C76.7228 10.5641 78.0465 10.9689 79.1908 11.704L78.193 13.3747C77.3061 12.7693 76.2697 12.4224 75.1985 12.3725C74.2007 12.3725 73.7013 12.8741 73.7013 13.3747C73.7013 14.21 74.8663 14.3769 76.0302 14.8785C77.6936 15.3801 79.5241 16.0486 79.5241 18.0529L79.5273 18.0519ZM69.0455 21.2263H66.7156V19.8852C66.2856 20.3864 65.7473 20.7825 65.1418 21.0431C64.5363 21.3037 63.8796 21.422 63.2216 21.389C61.2239 21.389 59.3955 20.2189 59.3955 18.0466C59.3955 15.7075 61.226 14.7042 63.7211 14.7042C64.7429 14.6641 65.762 14.8348 66.7156 15.2059V14.8722C66.7156 13.3684 65.7178 12.533 64.0533 12.533C63.0238 12.5771 62.0101 12.8034 61.0588 13.2015L60.3933 11.195C61.6487 10.6278 63.0123 10.3428 64.3887 10.3597C67.5493 10.3597 69.0476 12.0304 69.0476 14.8711L69.0455 21.2263ZM57.566 21.2263H55.0699V15.039C55.0699 13.3684 54.2382 12.532 52.9071 12.532C52.5728 12.5351 52.243 12.6091 51.9392 12.7492C51.6354 12.8893 51.3645 13.0922 51.1442 13.3448C50.9239 13.5973 50.7593 13.8937 50.661 14.2147C50.5627 14.5356 50.5331 14.8737 50.574 15.2069V21.2263H48.2482V15.039C48.2482 13.3684 47.4165 12.532 46.0854 12.532C45.7515 12.5357 45.4221 12.6102 45.1188 12.7505C44.8155 12.8908 44.5451 13.0939 44.3253 13.3463C44.1055 13.5988 43.9412 13.895 43.8432 14.2156C43.7452 14.5363 43.7156 14.874 43.7565 15.2069V21.2263H41.2604V10.5276H43.7565V12.1983C44.0804 11.6438 44.5417 11.183 45.0956 10.8608C45.6495 10.5386 46.277 10.366 46.9171 10.3597C47.5637 10.3307 48.2051 10.4885 48.7653 10.8144C49.3254 11.1402 49.7809 11.6205 50.0777 12.1983C50.4816 11.6042 51.03 11.1236 51.6707 10.8021C52.3114 10.4805 53.0232 10.3286 53.7388 10.3608C56.0677 10.3608 57.3988 11.8646 57.3988 14.3737V21.2263H57.566ZM33.608 21.3932C32.876 21.4044 32.149 21.2706 31.4685 20.9994C30.788 20.7283 30.1674 20.3252 29.642 19.813C29.1167 19.3009 28.697 18.6898 28.4069 18.0148C28.1168 17.3397 27.962 16.6138 27.9513 15.8786C27.9478 15.1392 28.0929 14.4067 28.378 13.725C28.6632 13.0434 29.0824 12.4266 29.6107 11.9116C30.1389 11.3966 30.7652 10.9941 31.4521 10.7282C32.139 10.4622 32.8723 10.3383 33.608 10.3639C34.34 10.3528 35.067 10.4866 35.7475 10.7577C36.428 11.0288 37.0487 11.432 37.574 11.9441C38.0993 12.4562 38.519 13.0673 38.8091 13.7424C39.0992 14.4175 39.254 15.1433 39.2647 15.8786C39.2683 16.6179 39.1231 17.3504 38.838 18.0321C38.5529 18.7137 38.1336 19.3305 37.6054 19.8455C37.0771 20.3605 36.4508 20.763 35.7639 21.029C35.077 21.2949 34.3437 21.4188 33.608 21.3932ZM25.9546 21.2263H23.4585V15.039C23.4585 13.3684 22.6269 12.532 21.1296 12.532C20.7957 12.5357 20.4663 12.6102 20.163 12.7505C19.8597 12.8908 19.5893 13.0939 19.3695 13.3463C19.1497 13.5988 18.9854 13.895 18.8874 14.2156C18.7894 14.5363 18.7598 14.874 18.8007 15.2069V21.2263H16.4707V6.5168H18.9668V12.1983C19.3108 11.6253 19.7993 11.1537 20.3828 10.8311C20.9664 10.5085 21.6244 10.3462 22.2904 10.3608C22.8121 10.3434 23.3316 10.4366 23.815 10.6344C24.2984 10.8322 24.7349 11.1302 25.0959 11.5089C25.457 11.8875 25.7345 12.3384 25.9103 12.832C26.0862 13.3256 26.1565 13.851 26.1166 14.3737V21.2263H25.9546ZM14.1418 12.6999H11.1452V17.8797C11.1452 18.8819 11.6446 19.2167 12.4763 19.2167C12.9898 19.1858 13.4952 19.0731 13.9736 18.883V20.8894C13.3041 21.2313 12.5616 21.4035 11.8108 21.3911C9.98021 21.3911 8.81627 20.5557 8.81627 18.2166V12.6999H7.48726V10.5276H8.81732V7.68689H11.3134V10.5276H14.1418V12.6999ZM0 31.0813H192.66V0H0V31.0813Z"></path>
</g>
<mask height="64" width="241" y="0" x="0" maskUnits="userSpaceOnUse" style="mask-type:luminance" id="mask3_903_7527">
<path fill="white" d="M240.41 0H0V64H240.41V0Z"></path>
</mask>
<g mask="url(#mask3_903_7527)">
<path fill="#E7E7E7" d="M151.234 12.3651C150.515 12.3745 149.825 12.6544 149.302 13.1494C148.778 13.6444 148.458 14.3187 148.405 15.039H153.896C153.878 14.3356 153.591 13.666 153.096 13.1684C152.601 12.6708 151.934 12.3833 151.234 12.3651Z"></path>
</g>
<mask height="64" width="241" y="0" x="0" maskUnits="userSpaceOnUse" style="mask-type:luminance" id="mask4_903_7527">
<path fill="white" d="M240.41 0H0V64H240.41V0Z"></path>
</mask>
<g mask="url(#mask4_903_7527)">
<path fill="#E7E7E7" d="M61.8906 17.8798C61.8906 18.8819 62.7223 19.5504 63.8883 19.5504C65.5517 19.5504 66.7167 18.7151 66.7167 17.3781V16.7097C65.9107 16.4301 65.0706 16.2617 64.2196 16.2091C62.8884 16.2091 61.8906 16.8776 61.8906 17.8798Z"></path>
</g>
<mask height="64" width="241" y="0" x="0" maskUnits="userSpaceOnUse" style="mask-type:luminance" id="mask5_903_7527">
<path fill="white" d="M240.41 0H0V64H240.41V0Z"></path>
</mask>
<g mask="url(#mask5_903_7527)">
<path fill="#E7E7E7" d="M107.644 17.8798C107.644 18.8819 108.475 19.5504 109.641 19.5504C111.305 19.5504 112.47 18.7151 112.47 17.3781V16.7097C111.664 16.4301 110.824 16.2617 109.972 16.2091C108.641 16.2091 107.644 16.8776 107.644 17.8798Z"></path>
</g>
</g>
<defs>
<clipPath id="clip0_903_7527">
<rect fill="white" height="64" width="240.41"></rect>
</clipPath>
</defs>
</svg>
