<svg xmlns="http://www.w3.org/2000/svg" fill="none" viewBox="0 0 166 32" height="32" width="166">
<path fill="#E7E7E7" d="M77.4221 24.1821V14.7403H81.8123V9.99675H77.4221V3.61901H72.3566V9.99675H62.3605V9.0208C62.3605 7.29586 62.9909 6.68305 64.6569 6.68305H66.9983V1.80328H63.0134L58.7358 6.27451C57.7452 7.36395 57.3175 8.09024 57.3175 9.38394V9.99675H53.5127V14.7403H57.3175V31.4677H62.3605V14.7176H72.3791V23.7963C72.3791 25.09 72.8068 25.8163 73.7974 26.9057L78.0525 31.3996H82.0374V26.5199H79.7185C78.0525 26.5199 77.4221 25.9071 77.4221 24.1821Z"></path>
<path fill="#E7E7E7" d="M18.3936 3.57197C16.2548 2.39175 13.8233 1.80164 11.1217 1.80164H0V31.4661H14.7014L18.979 27.0175C20.3073 25.6784 21.3879 24.4301 22.2659 23.2953C23.977 21.0483 25.2828 18.2794 25.2828 15.1018C25.2828 12.6506 24.6749 10.4263 23.4366 8.38365C22.2434 6.36365 20.5324 4.75219 18.3936 3.57197ZM11.0992 26.382H5.24566V6.88567H10.2662C15.8045 6.93106 19.902 11.0618 19.857 16.509C19.9696 22.1605 15.8496 26.4955 11.0992 26.382Z"></path>
<path fill="#E7E7E7" d="M34.1514 13.4222V9.995H29.1309V31.466H34.1514V19.5049C34.1514 16.5543 35.4347 15.2833 38.3614 15.2833H41.018V9.995H37.4609L34.1514 13.4222Z"></path>
<path fill="#E7E7E7" d="M91.2237 9.995H86.2031V31.466H91.2237V9.995Z"></path>
<path fill="#E7E7E7" d="M120.066 9.56304C118.535 9.56304 117.32 9.90349 116.667 10.2439L113.402 13.5122C112.254 11.061 109.89 9.56304 107.166 9.56304C105.365 9.56304 103.991 10.2439 103.811 10.3347L101.38 12.786V9.99428H96.3594V31.4425H101.38V19.0275C101.38 16.077 102.866 14.1931 105.365 14.1931C107.886 14.1931 109.395 16.3493 109.395 19.0275V31.4425H114.37V19.0275C114.37 16.1224 116.036 14.1931 118.4 14.1931C120.877 14.1931 122.385 16.3947 122.385 19.0275V31.4425H127.428V17.3026C127.496 12.8087 124.006 9.49495 120.066 9.56304Z"></path>
<path fill="#E7E7E7" d="M150.977 18.3933C150.324 12.4241 145.619 9.56429 141.386 9.58699C139.923 9.58699 138.73 9.81395 137.784 10.2679L134.272 13.9447C131.998 16.3506 130.76 18.711 130.76 21.9339C130.67 27.5854 135.443 31.9885 141.341 31.875C144.516 31.875 147.33 30.6948 149.401 28.7202L146.97 24.9072C145.371 26.3825 143.593 27.1088 141.589 27.1088C138.46 27.1088 136.321 25.293 135.713 22.4106H147.195L150.977 18.3933ZM135.803 18.5748C136.478 15.942 138.347 14.2171 140.891 14.2171C143.863 14.2171 145.596 15.942 146.137 18.5748H135.803Z"></path>
<path fill="#E7E7E7" d="M49.6416 9.995H44.6211V31.466H49.6416V9.995Z"></path>
<path fill="#E7E7E7" d="M47.3714 0.122803L43.8818 3.64077C43.9944 5.34302 45.4128 6.70481 47.1238 6.70481C48.9249 6.70481 50.3883 5.22954 50.3883 3.41381C50.4108 1.64347 49.06 0.236286 47.3714 0.122803Z"></path>
<path fill="#E7E7E7" d="M88.9241 0.122803L85.457 3.64077C85.5696 5.36571 86.988 6.70481 88.699 6.70481C90.5001 6.70481 91.9635 5.22954 91.9635 3.41381C91.986 1.64347 90.6352 0.236286 88.9241 0.122803Z"></path>
<path fill="#E7E7E7" d="M159.577 0.122803C156.043 0.122803 153.184 3.00527 153.184 6.54594C153.184 10.0866 156.088 12.9691 159.577 12.9691C163.112 12.9691 165.971 10.1093 165.971 6.54594C165.971 3.00527 163.09 0.122803 159.577 0.122803ZM159.577 11.9704C156.606 11.9704 154.219 9.56458 154.219 6.56863C154.219 3.57268 156.651 1.16685 159.577 1.16685C162.549 1.16685 164.936 3.59538 164.936 6.56863C164.936 9.56458 162.549 11.9704 159.577 11.9704Z"></path>
<path fill="#E7E7E7" d="M160.796 7.27271L161.246 6.81878C161.516 6.54642 161.696 6.27406 161.831 6.04709C161.944 5.82013 162.011 5.54777 162.011 5.2981C162.011 4.43563 161.223 3.66395 160.165 3.68665H157.576V9.56506H158.814V7.25001L160.458 9.56506H162.169L160.075 7.27271H160.796ZM158.814 6.36484V4.84417H159.918C160.413 4.84417 160.773 5.13923 160.773 5.59316C160.773 6.02439 160.413 6.36484 159.918 6.36484H158.814Z"></path>
</svg>
