<svg xmlns="http://www.w3.org/2000/svg" fill="none" viewBox="0 0 196 24" height="24" width="196">
<g clip-path="url(#clip0_903_7501)">
<path fill="#E7E7E7" d="M0 23.6116V0.0776672H4.14751L4.47742 3.85242C5.21581 2.67184 6.18984 1.7398 7.43095 1.07184C8.67206 0.403881 10.0389 0.0776672 11.5785 0.0776672C12.741 0.0776672 13.8093 0.233007 14.7676 0.559221C15.726 0.885434 16.5586 1.35145 17.297 1.98835C18.0354 2.62524 18.6324 3.41747 19.088 4.36505C19.9206 3.02912 21.036 1.97281 22.4343 1.22718C23.8325 0.466017 25.3092 0.0776672 26.8803 0.0776672C28.7498 0.0776672 30.3679 0.450483 31.719 1.19611C33.0701 1.94174 34.107 3.04466 34.8139 4.52039C35.5209 5.99611 35.8822 7.82912 35.8822 10.0194V23.6116H31.3106V10.4699C31.3106 8.34174 30.8707 6.72621 29.9909 5.63883C29.1111 4.55145 27.8386 3.99223 26.1419 3.99223C25.0107 3.99223 23.9896 4.28738 23.0941 4.86213C22.1986 5.43689 21.5073 6.27572 20.9889 7.3631C20.4862 8.45048 20.2348 9.80194 20.2348 11.3709V23.5961H15.616V10.4699C15.616 8.34174 15.1761 6.72621 14.2963 5.63883C13.4166 4.55145 12.144 3.99223 10.4473 3.99223C9.36332 3.99223 8.38928 4.28738 7.49379 4.86213C6.59831 5.43689 5.89135 6.27572 5.37291 7.3631C4.85447 8.45048 4.5874 9.80194 4.5874 11.3709V23.5961H0V23.6116Z"></path>
<path fill="#E7E7E7" d="M70.3507 23.6116V0.0776672H74.4982L74.9066 4.95534C75.4251 3.93009 76.1006 3.04466 76.9333 2.33009C77.7659 1.61553 78.74 1.05631 79.8554 0.667958C80.9708 0.279609 82.259 0.0776672 83.7044 0.0776672V4.90874H82.0391C81.0808 4.90874 80.1853 5.01747 79.3212 5.25048C78.4572 5.48349 77.7031 5.87184 77.0432 6.41553C76.3834 6.95922 75.865 7.70485 75.5036 8.65242C75.1423 9.6 74.9538 10.765 74.9538 12.1631V23.6116H70.335H70.3507Z"></path>
<path fill="#E7E7E7" d="M90.004 23.6116V0.0776672H94.1515L94.56 4.95534C95.0784 3.93009 95.7539 3.04466 96.5866 2.33009C97.4192 1.61553 98.3933 1.05631 99.5087 0.667958C100.624 0.279609 101.912 0.0776672 103.358 0.0776672V4.90874H101.692C100.734 4.90874 99.8386 5.01747 98.9746 5.25048C98.1105 5.48349 97.3564 5.87184 96.6966 6.41553C96.0367 6.95922 95.5183 7.70485 95.157 8.65242C94.7956 9.6 94.6071 10.765 94.6071 12.1631V23.6116H89.9883H90.004Z"></path>
<path fill="#E7E7E7" d="M126.42 4.34951C125.682 2.99806 124.598 1.94174 123.153 1.19611C121.707 0.466016 119.916 0.0932007 117.796 0.0932007C116.162 0.0932007 114.638 0.388346 113.192 0.994172C111.747 1.61553 110.569 2.4699 109.658 3.58835C109.014 4.36505 108.558 5.26602 108.275 6.27573L112.517 7.61165C112.753 6.36893 113.365 5.42136 114.324 4.78446C115.282 4.14757 116.444 3.83689 117.796 3.83689C118.958 3.83689 119.932 4.03883 120.702 4.47378C121.472 4.90874 122.037 5.56116 122.43 6.41553C122.823 7.2699 123.011 8.35728 123.011 9.66213H117.12C115.093 9.66213 113.381 9.94174 111.936 10.5165C110.49 11.0757 109.375 11.8835 108.605 12.9398C107.82 13.9961 107.427 15.2699 107.427 16.7456C107.427 17.9728 107.725 19.1068 108.322 20.1631C108.935 21.2194 109.846 22.0583 111.072 22.6796C112.313 23.301 113.852 23.6116 115.722 23.6116C116.68 23.6116 117.56 23.5029 118.361 23.2854C119.147 23.0524 119.854 22.7573 120.466 22.3689C121.095 21.9806 121.629 21.5146 122.069 20.9864C122.524 20.4583 122.917 19.8835 123.247 19.2932L123.608 23.6116H127.52V9.18058C127.52 7.30097 127.159 5.70097 126.42 4.34951ZM122.933 12.9709C122.901 13.8563 122.744 14.7262 122.461 15.565C122.179 16.4194 121.755 17.1806 121.189 17.8485C120.639 18.5165 119.964 19.0447 119.194 19.4175C118.408 19.8058 117.528 20.0078 116.57 20.0078C115.612 20.0078 114.842 19.8524 114.182 19.5573C113.522 19.2621 113.02 18.8582 112.674 18.3301C112.328 17.8175 112.156 17.1806 112.156 16.4349C112.156 15.6893 112.344 15.099 112.705 14.5709C113.051 14.0427 113.632 13.6078 114.434 13.2971C115.235 12.9864 116.272 12.8311 117.56 12.8311H122.933V12.9709Z"></path>
<path fill="#E7E7E7" d="M194.1 4.34951C193.362 2.99806 192.278 1.94174 190.832 1.19611C189.387 0.466016 187.596 0.0932007 185.475 0.0932007C183.841 0.0932007 182.317 0.388346 180.872 0.994172C179.427 1.61553 178.248 2.4699 177.337 3.58835C176.693 4.36505 176.238 5.26602 175.955 6.27573L180.197 7.61165C180.432 6.36893 181.045 5.42136 182.003 4.78446C182.962 4.14757 184.124 3.83689 185.475 3.83689C186.638 3.83689 187.612 4.03883 188.382 4.47378C189.151 4.90874 189.717 5.56116 190.11 6.41553C190.503 7.2699 190.691 8.35728 190.691 9.66213H184.8C182.773 9.66213 181.061 9.94174 179.615 10.5165C178.17 11.0757 177.055 11.8835 176.285 12.9398C175.499 13.9961 175.106 15.2699 175.106 16.7456C175.106 17.9728 175.405 19.1068 176.002 20.1631C176.615 21.2194 177.526 22.0583 178.751 22.6796C179.992 23.301 181.532 23.6116 183.401 23.6116C184.36 23.6116 185.24 23.5029 186.041 23.2854C186.826 23.0524 187.533 22.7573 188.146 22.3689C188.774 21.9806 189.309 21.5146 189.748 20.9864C190.204 20.4583 190.597 19.8835 190.927 19.2932L191.288 23.6116H195.2V9.18058C195.2 7.30097 194.839 5.70097 194.1 4.34951ZM190.612 12.9709C190.581 13.8563 190.424 14.7262 190.141 15.565C189.858 16.4194 189.434 17.1806 188.869 17.8485C188.319 18.5165 187.643 19.0447 186.873 19.4175C186.088 19.8058 185.208 20.0078 184.25 20.0078C183.291 20.0078 182.522 19.8524 181.862 19.5573C181.202 19.2621 180.699 18.8582 180.354 18.3301C180.008 17.8175 179.835 17.1806 179.835 16.4349C179.835 15.6893 180.024 15.099 180.385 14.5709C180.731 14.0427 181.312 13.6078 182.113 13.2971C182.914 12.9864 183.951 12.8311 185.24 12.8311H190.612V12.9709Z"></path>
<path fill="#E7E7E7" d="M134.574 23.6116V0.0776678H138.722L139.052 3.85243C139.79 2.67184 140.78 1.7398 142.005 1.07184C143.231 0.403881 144.613 0.0621338 146.153 0.0621338C147.315 0.0621338 148.384 0.217474 149.326 0.543687C150.269 0.869901 151.133 1.33592 151.856 1.97281C152.594 2.60971 153.191 3.40194 153.662 4.34951C154.495 3.01359 155.61 1.95728 157.009 1.21165C158.407 0.450483 159.884 0.0621338 161.455 0.0621338C163.324 0.0621338 164.942 0.434949 166.293 1.18058C167.644 1.92621 168.681 3.02912 169.388 4.50485C170.095 5.98058 170.441 7.81359 170.441 10.0039V23.5961H165.885V10.4699C165.885 8.34174 165.445 6.72621 164.565 5.63883C163.686 4.55145 162.397 3.99223 160.716 3.99223C159.569 3.99223 158.564 4.28738 157.668 4.86213C156.773 5.43689 156.082 6.27573 155.563 7.3631C155.061 8.45048 154.809 9.80194 154.809 11.3709V23.5961H150.19V10.4699C150.19 8.34174 149.751 6.72621 148.871 5.63883C147.991 4.55145 146.703 3.99223 145.022 3.99223C143.938 3.99223 142.964 4.28738 142.068 4.86213C141.173 5.43689 140.466 6.27573 139.947 7.3631C139.429 8.45048 139.162 9.80194 139.162 11.3709V23.5961H134.543L134.574 23.6116Z"></path>
<path fill="#E7E7E7" d="M52.9906 0C46.2823 0 40.8623 5.37476 40.8623 11.9922C40.8623 18.6097 46.2981 23.9845 52.9906 23.9845C59.6832 23.9845 65.1189 18.6097 65.1189 11.9922C65.1189 5.37476 59.6832 0 52.9906 0ZM52.9906 19.8835C48.5918 19.8835 45.0098 16.3417 45.0098 11.9922C45.0098 7.64272 48.5918 4.10097 52.9906 4.10097C57.3895 4.10097 60.9714 7.64272 60.9714 11.9922C60.9714 16.3417 57.3895 19.8835 52.9906 19.8835Z"></path>
</g>
<defs>
<clipPath id="clip0_903_7501">
<rect fill="white" height="24" width="195.2"></rect>
</clipPath>
</defs>
</svg>
