<svg xmlns="http://www.w3.org/2000/svg" fill="none" viewBox="0 0 271 40" height="40" width="271">
<path fill="#E7E7E7" d="M23.965 27.6532C23.965 31.8388 20.6089 34.5802 14.8915 34.5802C8.44947 34.5802 4.86257 31.0703 4.72559 26.4809H7.85826C8.03851 29.6298 10.0825 32.0139 14.9383 32.0139C19.3832 32.0139 20.8828 29.9873 20.8828 27.739C20.8828 24.3649 17.4329 24.0039 14.2137 23.239C9.94911 22.2024 5.63763 21.123 5.63763 16.6694C5.63763 12.9343 8.63332 10.5038 13.8496 10.5038C19.841 10.5038 22.6997 13.6992 23.1071 17.4772H19.978C19.5706 15.4506 18.3882 13.0665 13.8532 13.0665C10.5403 13.0665 8.72705 14.3247 8.72705 16.4871C8.72705 19.368 11.8129 19.7254 15.3529 20.6262C19.7076 21.6627 23.9759 22.878 23.9759 27.6461L23.965 27.6532Z"></path>
<path fill="#E7E7E7" d="M28.9177 11.0519V4.47522H31.8665V11.0484H36.5854V13.6111H31.8665V28.0978C31.8665 30.9322 32.5478 31.6077 34.8153 31.6077C35.5435 31.6077 35.904 31.5648 36.5854 31.5184V33.9918C35.6769 34.1276 35.1326 34.1741 34.408 34.1741C31.0049 34.1741 28.9177 33.0482 28.9177 28.0549V13.6147H25.5146V11.0519H28.9177Z"></path>
<path fill="#E7E7E7" d="M48.2982 31.972C52.653 31.972 55.5585 28.9124 55.5585 25.5383V11.0516H58.5074V33.9986H55.5585V30.7603H55.4684C54.1995 32.6511 51.7013 34.5384 47.5736 34.5384C43.446 34.5384 39.9961 32.2437 39.9961 27.161V11.0516H42.9449V26.5284C42.9449 29.4521 44.2607 31.972 48.2982 31.972Z"></path>
<path fill="#E7E7E7" d="M80.7025 14.9048V4.43921H83.6514V33.9808H80.7025V30.2457H80.6124C79.2498 32.4939 76.802 34.5634 72.7609 34.5634C67.1336 34.5634 62.5986 30.0634 62.5986 22.5037C62.5986 14.9441 67.1372 10.4905 72.8078 10.4905C76.802 10.4905 79.2498 12.4707 80.6124 14.8976H80.7025V14.9048ZM80.7025 22.5073C80.7025 16.7491 77.5699 13.0604 73.125 13.0604C68.3124 13.0604 65.6808 17.3818 65.6808 22.5073C65.6808 27.6328 68.3124 32.0006 73.125 32.0006C77.5699 32.0006 80.7025 28.312 80.7025 22.5073Z"></path>
<path fill="#E7E7E7" d="M91.943 11.0516V33.9986H88.9941V11.0516H91.943Z"></path>
<path fill="#E7E7E7" d="M95.998 22.5684C95.998 15.4162 100.173 10.4658 107.116 10.4658C114.059 10.4658 118.233 15.4162 118.233 22.5684C118.233 29.7206 114.012 34.6245 107.116 34.6245C100.219 34.6245 95.998 29.6777 95.998 22.5684ZM115.147 22.5684C115.147 17.2606 112.516 13.0286 107.116 13.0286C101.715 13.0286 99.0839 17.257 99.0839 22.5684C99.0839 27.8798 101.672 32.0617 107.116 32.0617C112.559 32.0617 115.147 27.8333 115.147 22.5684Z"></path>
<path fill="#E7E7E7" d="M122.78 11.0516L128.544 30.6674H128.634L134.034 11.0516H137.347L142.747 30.6674H142.838L148.645 11.0516H151.821L144.424 33.9986H141.158L135.667 14.6081H135.577L130.177 33.9986H126.864L119.514 11.0516H122.78Z"></path>
<path fill="#E7E7E7" d="M154.232 22.5684C154.232 15.4162 158.407 10.4658 165.35 10.4658C172.293 10.4658 176.468 15.4162 176.468 22.5684C176.468 29.7206 172.246 34.6245 165.35 34.6245C158.454 34.6245 154.232 29.6777 154.232 22.5684ZM173.382 22.5684C173.382 17.2606 170.75 13.0286 165.35 13.0286C159.95 13.0286 157.318 17.257 157.318 22.5684C157.318 27.8798 159.907 32.0617 165.35 32.0617C170.793 32.0617 173.382 27.8333 173.382 22.5684Z"></path>
<path fill="#E7E7E7" d="M179.467 22.5684C179.467 15.4162 183.641 10.4658 190.584 10.4658C197.527 10.4658 201.702 15.4162 201.702 22.5684C201.702 29.7206 197.481 34.6245 190.584 34.6245C183.688 34.6245 179.467 29.6777 179.467 22.5684ZM198.616 22.5684C198.616 17.2606 195.985 13.0286 190.584 13.0286C185.184 13.0286 182.553 17.257 182.553 22.5684C182.553 27.8798 185.141 32.0617 190.584 32.0617C196.028 32.0617 198.616 27.8333 198.616 22.5684Z"></path>
<path fill="#E7E7E7" d="M222.809 14.9201V4.45816H225.758V33.9998H222.809V30.2646H222.719C221.356 32.5128 218.908 34.5824 214.867 34.5824C209.24 34.5824 204.705 30.0823 204.705 22.5227C204.705 14.963 209.244 10.5095 214.914 10.5095C218.908 10.5095 221.356 12.4896 222.719 14.9166H222.809V14.9201ZM222.809 22.5227C222.809 16.7645 219.676 13.0758 215.231 13.0758C210.419 13.0758 207.787 17.3971 207.787 22.5227C207.787 27.6482 210.419 32.016 215.231 32.016C219.676 32.016 222.809 28.3273 222.809 22.5227Z"></path>
<path fill="#E7E7E7" d="M91.9466 4.43921H88.9834V7.37728H91.9466V4.43921Z"></path>
<path fill="#E7E7E7" d="M258.206 4.46313C255.845 8.78446 253.509 13.0701 251.144 17.4021C248.779 13.0701 246.44 8.78446 244.082 4.46313H258.206Z"></path>
<path fill="#E7E7E7" d="M229.947 4.45746H244.082C241.721 8.78236 239.385 13.0608 237.017 17.4036C234.648 13.0679 232.312 8.78594 229.947 4.45746Z"></path>
</svg>
