<svg xmlns="http://www.w3.org/2000/svg" fill="none" viewBox="0 0 132 72" height="72" width="132">
<path fill="#E7E7E7" d="M31.9896 0.555725V21.3258C31.9896 30.5054 26.2408 35.5125 15.9948 35.5125C5.74886 35.5125 0 30.4591 0 21.2795V0.555725H10.1532V20.7231C10.1532 25.5911 11.9613 27.7237 15.9948 27.7237C19.9819 27.7237 21.8364 25.5911 21.8364 20.7231V0.555725H31.9896Z"></path>
<path fill="#E7E7E7" d="M44.6001 23.9684V34.9562H34.6787V0.555725H51.8789C60.7804 0.555725 65.7875 4.72829 65.7875 12.2389C65.7875 16.8287 63.6085 20.3059 59.5286 22.2994L66.7611 34.9098H55.9124L49.839 23.9221H44.6001V23.9684ZM44.6001 8.25178V16.2724H50.4417C54.2434 16.2724 55.8661 15.1133 55.8661 12.2853C55.8661 9.45719 54.2434 8.29815 50.4417 8.29815H44.6001V8.25178Z"></path>
<path fill="#E7E7E7" d="M71.5844 30.599C68.5245 27.3537 66.9482 23.0421 66.9482 17.7105C66.9482 12.4252 68.5709 8.11356 71.8162 4.86823C75.0616 1.62291 79.3732 0.000244141 84.7512 0.000244141C93.4208 0.000244141 98.9379 4.31189 100.746 12.4716H90.7318C89.9901 9.17988 88.0892 7.64994 84.7512 7.64994C79.8832 7.64994 77.2406 11.2198 77.2406 17.7105C77.2406 24.2938 79.8832 27.8637 84.8439 27.8637C88.321 27.8637 90.6855 26.1483 90.6855 23.8302V23.6911H86.5593V16.7369H101.024V34.9107H93.2354L92.7718 31.4335C92.2154 32.639 91.1027 33.6125 89.3874 34.308C87.7183 35.0961 85.8639 35.467 83.963 35.467C78.7705 35.5134 74.6907 33.8907 71.5844 30.599Z"></path>
<path fill="#E7E7E7" d="M131.439 27.2601V34.9562H103.761V0.555725H131.439V8.25178H113.682V13.7688H128.842V21.4649H113.682V27.2138H131.439V27.2601Z"></path>
<path fill="#E7E7E7" d="M131.436 37.6457H0V71.9998H131.436V37.6457Z"></path>
</svg>
